<svg xmlns="http://www.w3.org/2000/svg" viewBox="0 0 26.13 25.4"><defs><style>.a{fill:#edf4fb;}.b{fill:#468edf;}</style></defs><title>add-widget</title><path class="a" d="M25.43,19.23a5.47,5.47,0,1,1-2.75-4.74A5.47,5.47,0,0,1,25.43,19.23Z"/><path class="a" d="M22.68,1.83V14.5a5.46,5.46,0,0,0-7,8.19H1.83A1.13,1.13,0,0,1,.7,21.56V1.83A1.13,1.13,0,0,1,1.83.7H21.56A1.13,1.13,0,0,1,22.68,1.83Z"/><path class="b" d="M10.74,17.09a1.19,1.19,0,1,1,1.19-1.19A1.19,1.19,0,0,1,10.74,17.09Zm0-1.4a.22.22,0,0,0-.21.21c0,.24.43.24.43,0A.22.22,0,0,0,10.74,15.69Z"/><path class="b" d="M15.73,23.39H1.83A1.83,1.83,0,0,1,0,21.56V1.83A1.83,1.83,0,0,1,1.83,0H21.56a1.83,1.83,0,0,1,1.83,1.83V14.5a.7.7,0,0,1-1,.61,4.76,4.76,0,0,0-6.06,7.14.7.7,0,0,1-.54,1.14ZM1.83,1.4a.43.43,0,0,0-.43.43V21.56a.43.43,0,0,0,.43.43H14.45A6.17,6.17,0,0,1,20,13.07a6.19,6.19,0,0,1,2,.34V1.83a.43.43,0,0,0-.43-.43Z"/><path class="b" d="M22.39,5.93H1a.7.7,0,0,1,0-1.4H22.39a.7.7,0,0,1,0,1.4Z"/><path class="b" d="M10.76,16.7a.7.7,0,0,1-.51-.22L7.32,13.35l-2.9,2.59a.7.7,0,1,1-.93-1l3.41-3a.7.7,0,0,1,1,0l2.76,2.95,3.09-5.23a.7.7,0,0,1,.6-.34h0a.7.7,0,0,1,.6.36l2.59,4.73a.7.7,0,0,1-1.23.67l-2-3.65-2.94,5a.7.7,0,0,1-.53.34Z"/><path class="b" d="M14.14,11.27a1.19,1.19,0,1,1,1.19-1.19A1.19,1.19,0,0,1,14.14,11.27Zm0-1.4a.22.22,0,0,0-.21.21c0,.24.43.24.43,0A.22.22,0,0,0,14.14,9.87Z"/><path class="b" d="M7.34,13.94a1.43,1.43,0,1,1,1.43-1.43A1.43,1.43,0,0,1,7.34,13.94Zm0-1.46,0,0A0,0,0,0,0,7.34,12.48Z"/><circle class="b" cx="3.37" cy="3.12" r="0.53"/><circle class="b" cx="5.15" cy="3.12" r="0.53"/><circle class="b" cx="6.93" cy="3.12" r="0.53"/><path class="b" d="M20,25.4a6.16,6.16,0,0,1,0-12.33A6.16,6.16,0,1,1,20,25.4Zm0-10.93a4.76,4.76,0,0,0-4.76,4.76A4.77,4.77,0,0,0,20,24a4.76,4.76,0,1,0,0-9.53Z"/><path class="b" d="M20,22.42a.7.7,0,0,1-.7-.7v-5a.7.7,0,1,1,1.4,0v5A.7.7,0,0,1,20,22.42Z"/><path class="b" d="M22.45,19.94h-5a.7.7,0,0,1,0-1.4h5a.7.7,0,0,1,0,1.4Z"/></svg>