<svg xmlns="http://www.w3.org/2000/svg" viewBox="0 0 32 32"><defs><style>.a{fill:#edf4fb;}.b{fill:#468edf;}</style></defs><title>Icons</title><path class="a" d="M3.43.79h24.2a3,3,0,0,1,3,3V25.23a5.26,5.26,0,0,1-5.26,5.26h-22a3,3,0,0,1-3-3V3.84A3,3,0,0,1,3.43.79Z"/><path class="b" d="M19.91,31.29H3.56A3.56,3.56,0,0,1,0,27.73V3.56A3.56,3.56,0,0,1,3.56,0H27.73a3.56,3.56,0,0,1,3.56,3.56V19.91a.71.71,0,0,1-1.42,0V3.56a2.14,2.14,0,0,0-2.13-2.13H3.56A2.14,2.14,0,0,0,1.42,3.56V27.73a2.14,2.14,0,0,0,2.13,2.13H19.91a.71.71,0,1,1,0,1.42Z"/><path class="b" d="M30.58,5.69H.71a.71.71,0,1,1,0-1.42H30.58a.71.71,0,0,1,0,1.42Z"/><path class="b" d="M4.27,3.56a.7.7,0,0,1-.71-.71.73.73,0,0,1,.21-.5.74.74,0,0,1,1,0,.73.73,0,0,1,.21.5.7.7,0,0,1-.71.71Z"/><path class="b" d="M6.4,3.56a.7.7,0,0,1-.71-.71.73.73,0,0,1,.21-.5.74.74,0,0,1,1,0,.72.72,0,0,1,0,1A.75.75,0,0,1,6.4,3.56Z"/><path class="b" d="M8.53,3.56a.7.7,0,0,1-.71-.71A.73.73,0,0,1,8,2.34a.74.74,0,0,1,1,0,.72.72,0,0,1,0,1A.75.75,0,0,1,8.53,3.56Z"/><path class="b" d="M23.47,32A8.53,8.53,0,1,1,32,23.47,8.54,8.54,0,0,1,23.47,32Zm0-15.64a7.11,7.11,0,1,0,7.11,7.11A7.12,7.12,0,0,0,23.47,16.36Z"/><path class="b" d="M23.47,27.73a.71.71,0,0,1-.71-.71V19.91a.71.71,0,0,1,1.42,0V27A.71.71,0,0,1,23.47,27.73Z"/><path class="b" d="M27,24.18H19.91a.71.71,0,1,1,0-1.42H27a.71.71,0,0,1,0,1.42Z"/></svg>