<svg xmlns="http://www.w3.org/2000/svg" viewBox="0 0 26 26"><defs><style>.a{fill:#edf4fb;}.b{fill:#468edf;}</style></defs><title>comdash-icons</title><circle class="a" cx="13" cy="13" r="12"/><line class="a" x1="11.42" y1="8.25" x2="6.5" y2="13.83"/><line class="a" x1="11.42" y1="18.75" x2="6.5" y2="13.83"/><path class="b" d="M13,25.7A12.7,12.7,0,1,1,25.7,13,12.71,12.71,0,0,1,13,25.7Zm0-24A11.3,11.3,0,1,0,24.3,13,11.31,11.31,0,0,0,13,1.7Z"/><path class="b" d="M6.5,14.53A.7.7,0,0,1,6,13.36L10.9,7.79a.7.7,0,1,1,1,.93L7,14.29A.7.7,0,0,1,6.5,14.53Z"/><path class="b" d="M11.42,19.45a.7.7,0,0,1-.5-.21L6,14.32a.7.7,0,0,1,1-1l4.92,4.92a.7.7,0,0,1-.5,1.2Z"/><path class="b" d="M18.92,14.35H6.81a.7.7,0,0,1,0-1.4H18.92a.7.7,0,1,1,0,1.4Z"/></svg>