<svg xmlns="http://www.w3.org/2000/svg" viewBox="0 0 32 32"><defs><style>.a{fill:#fff;}.b{fill:#468edf;}</style></defs><title>Icons</title><path class="a" d="M26.13,7.51h-.8a1.85,1.85,0,0,0-1.68,1.18c-.67,1.27-.78,3-4,3H12.37c-3.24,0-3.35-1.76-4-3A1.85,1.85,0,0,0,6.67,7.51h-.8a.3.3,0,0,0-.32.28v23a.59.59,0,0,0,.62.54H25.83a.59.59,0,0,0,.62-.54v-23A.3.3,0,0,0,26.13,7.51Z"/><path class="b" d="M25.83,32H6.17a1.26,1.26,0,0,1-1.29-1.21v-23a1,1,0,0,1,1-1h.8A2.49,2.49,0,0,1,8.93,8.37c.12.23.22.47.33.71.47,1.1.84,2,3.11,2h7.27c2.26,0,2.63-.87,3.11-2,.1-.24.21-.48.33-.71a2.49,2.49,0,0,1,2.3-1.53h.76a1,1,0,0,1,1,1v23A1.26,1.26,0,0,1,25.83,32ZM6.22,30.66H25.78V8.18h-.51c-.18,0-.64.11-1,.82-.1.2-.19.4-.28.61-.5,1.18-1.19,2.79-4.34,2.79H12.37C9.22,12.4,8.53,10.78,8,9.61c-.09-.21-.18-.42-.28-.61-.37-.7-.82-.8-1-.82H6.22Z"/><path class="a" d="M24.91,2.92H7a.32.32,0,0,0-.35.3v3a1.24,1.24,0,0,0,.63,1.07A4.14,4.14,0,0,1,8.87,9.81c.7,2.27,3.54,1.9,3.54,1.9h7.12s2.84.37,3.54-1.9a4.14,4.14,0,0,1,1.56-2.54,1.24,1.24,0,0,0,.63-1.07v-3A.32.32,0,0,0,24.91,2.92Z"/><path class="b" d="M11.9,12.41A3.65,3.65,0,0,1,8.23,10C7.77,8.49,7.25,8,7,7.85A1.92,1.92,0,0,1,6,6.2v-3a1,1,0,0,1,1-1H24.91a1,1,0,0,1,1,1v3a1.92,1.92,0,0,1-1,1.65c-.22.12-.77.58-1.25,2.15-.68,2.23-3.09,2.52-4.26,2.37h-7A3.82,3.82,0,0,1,11.9,12.41ZM7.35,3.59V6.2a.57.57,0,0,0,.3.49A4.85,4.85,0,0,1,9.51,9.61C10,11.32,12.3,11,12.32,11h7.21c.18,0,2.37.27,2.89-1.43a4.85,4.85,0,0,1,1.87-2.92.57.57,0,0,0,.3-.49V3.59Z"/><path class="a" d="M9.42,10.61,9.37,1.1A.46.46,0,0,1,9.85.67h1.71a.46.46,0,0,1,.49.43V11.72a7.11,7.11,0,0,1-1.43-.18A3.09,3.09,0,0,1,9.42,10.61Z"/><path class="b" d="M12.72,12.41l-.69,0a7.57,7.57,0,0,1-1.6-.21A3.58,3.58,0,0,1,8.89,11l-.14-.18L8.7,1.1A1.13,1.13,0,0,1,9.85,0h1.71a1.13,1.13,0,0,1,1.16,1.1Zm-2.63-2.06a2.05,2.05,0,0,0,.72.54,3.8,3.8,0,0,0,.57.1V1.34H10Z"/><path class="a" d="M12.84,5.36h1a.8.8,0,0,1,.8.8v5.57a0,0,0,0,1,0,0H12a0,0,0,0,1,0,0V6.16A.8.8,0,0,1,12.84,5.36Z"/><path class="b" d="M15.28,12.41H11.37V6.13a1.44,1.44,0,0,1,1.44-1.44h1a1.44,1.44,0,0,1,1.44,1.44Zm-2.57-1.34h1.23V6.13a.1.1,0,0,0-.1-.1h-1a.1.1,0,0,0-.1.1Z"/><path class="a" d="M15.41,5.36h1a.8.8,0,0,1,.8.8v5.57a0,0,0,0,1,0,0H14.61a0,0,0,0,1,0,0V6.16A.8.8,0,0,1,15.41,5.36Z"/><path class="b" d="M17.85,12.41H13.94V6.13a1.44,1.44,0,0,1,1.44-1.44h1a1.44,1.44,0,0,1,1.44,1.44Zm-2.57-1.34h1.23V6.13a.1.1,0,0,0-.1-.1h-1a.1.1,0,0,0-.1.1Z"/><path class="a" d="M18,5.36h1a.8.8,0,0,1,.8.8v5.57a0,0,0,0,1,0,0H17.18a0,0,0,0,1,0,0V6.16A.8.8,0,0,1,18,5.36Z"/><path class="b" d="M20.42,12.41H16.51V6.13A1.44,1.44,0,0,1,18,4.69h1a1.44,1.44,0,0,1,1.44,1.44Zm-2.57-1.34h1.23V6.13A.1.1,0,0,0,19,6H18a.1.1,0,0,0-.1.1Z"/><path class="a" d="M20.06,5.36h2a.31.31,0,0,1,.31.31v4.47a1.6,1.6,0,0,1-1.6,1.6h-1a0,0,0,0,1,0,0V5.66a.31.31,0,0,1,.31-.31Z"/><path class="b" d="M20.79,12.41h-1.7V5.65a1,1,0,0,1,1-1h2a1,1,0,0,1,1,1V10.2A2.21,2.21,0,0,1,20.79,12.41Zm-.36-1.34h.36a.87.87,0,0,0,.87-.87V6H20.42Z"/><polygon class="b" points="15.99 13.95 5.68 13.95 5.68 17.95 15.99 22.37 26.3 17.95 26.3 13.95 15.99 13.95"/></svg>