<svg xmlns="http://www.w3.org/2000/svg" viewBox="0 0 33.72 34.5"><defs><style>.a{fill:none;}.b{fill:#468edf;}</style></defs><title>Icons</title><path class="a" d="M23,6a.77.77,0,1,0,1.55,0V2.3A.77.77,0,1,0,23,2.3V6Z"/><path class="a" d="M9.21,6a.77.77,0,1,0,1.55,0V2.3a.77.77,0,1,0-1.55,0V6Z"/><path class="a" d="M26.06,6.05a2.3,2.3,0,0,1-4.59,0V4.57H12.26V6.05a2.3,2.3,0,0,1-4.59,0V4.57H1.54V33H32.21V4.57H26.06Z"/><path class="b" d="M31.47,3.06H26.06V2.3a2.3,2.3,0,0,0-4.59,0v.76H12.26V2.3a2.3,2.3,0,0,0-4.59,0v.76H2.25A2.25,2.25,0,0,0,0,5.31V32.25A2.25,2.25,0,0,0,2.25,34.5H31.47a2.25,2.25,0,0,0,2.25-2.25V5.31A2.25,2.25,0,0,0,31.47,3.06ZM23,2.3a.77.77,0,1,1,1.55,0V6A.77.77,0,1,1,23,6V2.3Zm-13.8,0a.77.77,0,1,1,1.55,0V6A.77.77,0,1,1,9.21,6V2.3ZM31.44,33H2.31a.77.77,0,0,1-.77-.77V5.3a.72.72,0,0,1,.72-.72h5.4V5.93A2.38,2.38,0,0,0,9.58,8.32a2.3,2.3,0,0,0,2.68-2.26V4.57h9.21V5.93a2.38,2.38,0,0,0,1.91,2.39,2.3,2.3,0,0,0,2.68-2.26V4.57h5.37a.78.78,0,0,1,.78.78V32.19A.77.77,0,0,1,31.44,33Z"/><path class="b" d="M9.59,10.78H6.53a.77.77,0,0,0-.77.77h0v3.07a.77.77,0,0,0,1.53,0v-2.3h2.3a.77.77,0,1,0,0-1.53Z"/><path class="b" d="M18.22,10.78H15.16a.77.77,0,0,0-.77.77h0v3.07a.77.77,0,0,0,1.53,0v-2.3h2.3a.77.77,0,1,0,0-1.53Z"/><path class="b" d="M26.85,10.78H23.78a.77.77,0,0,0-.77.77h0v3.07a.77.77,0,0,0,1.53,0v-2.3h2.3a.77.77,0,1,0,0-1.53Z"/><path class="b" d="M9.59,18H6.53a.77.77,0,0,0-.77.77h0V21.8a.77.77,0,0,0,1.53,0V19.5h2.3a.77.77,0,1,0,0-1.53Z"/><path class="b" d="M18.22,18H15.16a.77.77,0,0,0-.77.77h0V21.8a.77.77,0,1,0,1.53,0V19.5h2.3a.77.77,0,1,0,0-1.53Z"/><path class="b" d="M26.85,18H23.78a.77.77,0,0,0-.77.77h0V21.8a.77.77,0,0,0,1.53,0V19.5h2.3a.77.77,0,1,0,0-1.53Z"/><path class="b" d="M9.59,25.15H6.53a.77.77,0,0,0-.77.77h0V29a.77.77,0,0,0,1.53,0v-2.3h2.3a.77.77,0,1,0,0-1.53Z"/><path class="b" d="M18.22,25.15H15.16a.77.77,0,0,0-.77.77h0V29a.77.77,0,0,0,1.53,0v-2.3h2.3a.77.77,0,1,0,0-1.53Z"/><path class="b" d="M26.85,25.15H23.78a.77.77,0,0,0-.77.77h0V29a.77.77,0,1,0,1.53,0v-2.3h2.3a.77.77,0,1,0,0-1.53Z"/></svg>