<svg xmlns="http://www.w3.org/2000/svg" viewBox="0 0 37.13 32"><defs><style>.a{fill:#1ec600;}.b{fill:#468edf;}</style></defs><title>Icons</title><circle class="a" cx="14.68" cy="14.19" r="0.7"/><path class="b" d="M32.19,32a4.94,4.94,0,1,1,4.94-4.94A4.95,4.95,0,0,1,32.19,32Zm0-8.47a3.53,3.53,0,1,0,3.53,3.53A3.53,3.53,0,0,0,32.19,23.53Z"/><path class="b" d="M18.57,9.89a4.94,4.94,0,1,1,4.94-4.94A4.95,4.95,0,0,1,18.57,9.89Zm0-8.47a3.53,3.53,0,1,0,3.53,3.53A3.53,3.53,0,0,0,18.57,1.42Z"/><path class="b" d="M18.57,32a4.94,4.94,0,1,1,4.94-4.94A4.95,4.95,0,0,1,18.57,32Zm0-8.47a3.53,3.53,0,1,0,3.53,3.53A3.53,3.53,0,0,0,18.57,23.53Z"/><path class="b" d="M4.94,32a4.94,4.94,0,1,1,4.94-4.94A4.95,4.95,0,0,1,4.94,32Zm0-8.47a3.53,3.53,0,1,0,3.53,3.53A3.53,3.53,0,0,0,4.94,23.53Z"/><rect class="b" x="17.86" y="9.4" width="1.42" height="13.42"/><path class="b" d="M32.9,22.82H31.48V17.64a2.75,2.75,0,0,0-2.75-2.75H8.58a2.93,2.93,0,0,0-2.93,2.93v5H4.24v-5a4.35,4.35,0,0,1,4.34-4.34H28.73a4.17,4.17,0,0,1,4.16,4.16Z"/></svg>