<svg xmlns="http://www.w3.org/2000/svg" width="24" height="24" viewBox="0 0 24 24">
  <path fill="#4A90E2" fill-rule="evenodd" d="M11.9502,1.4004 C6.1332,1.4004 1.4002,6.1324 1.4002,11.9504 C1.4002,17.7674 6.1332,22.5004 11.9502,22.5004 C17.7672,22.5004 22.5002,17.7674 22.5002,11.9504 C22.5002,6.1324 17.7672,1.4004 11.9502,1.4004 M7.56717953,14.769 L9.8356,12.573 C10.1146,12.305 10.1206,11.861 9.8526,11.584 C9.5816,11.304 9.1396,11.298 8.8636,11.567 L5.3516,14.966 C5.2176,15.095 5.1406,15.272 5.1376,15.457 C5.1346,15.644 5.2056,15.822 5.3346,15.956 L8.8466,19.581 C8.9846,19.723 9.1666,19.794 9.3496,19.794 C9.5256,19.794 9.7016,19.729 9.8366,19.597 C10.1146,19.327 10.1206,18.885 9.8526,18.607 L7.4918853,16.169 L18.0635,16.169 C18.4505,16.169 18.7635,15.856 18.7635,15.469 C18.7635,15.082 18.4505,14.769 18.0635,14.769 L7.56717953,14.769 Z M16.4095147,9.9121 L14.0488,12.3501 C13.7808,12.6281 13.7868,13.0701 14.0648,13.3401 C14.1998,13.4721 14.3758,13.5371 14.5518,13.5371 C14.7348,13.5371 14.9168,13.4661 15.0548,13.3241 L18.5668,9.6991 C18.6958,9.5651 18.7668,9.3871 18.7638,9.2001 C18.7608,9.0151 18.6838,8.8381 18.5498,8.7091 L15.0378,5.3101 C14.7608,5.0421 14.3188,5.0471 14.0488,5.3271 C13.7808,5.6041 13.7868,6.0481 14.0658,6.3161 L16.3342205,8.5121 L5.8379,8.5121 C5.4509,8.5121 5.1379,8.8251 5.1379,9.2121 C5.1379,9.5991 5.4509,9.9121 5.8379,9.9121 L16.4095147,9.9121 Z M11.9502,23.9004 C5.3612,23.9004 0.0002,18.5394 0.0002,11.9504 C0.0002,5.3614 5.3612,0.000400000001 11.9502,0.000400000001 C18.5392,0.000400000001 23.9002,5.3614 23.9002,11.9504 C23.9002,18.5394 18.5392,23.9004 11.9502,23.9004 Z"/>
</svg>
