<svg xmlns="http://www.w3.org/2000/svg" viewBox="0 0 34.53 32"><defs><style>.a{fill:#468edf;}</style></defs><title>Icons</title><path class="a" d="M9.06,11.73a.72.72,0,0,1-.54-1.2l8.12-9.28A.72.72,0,0,1,17.18,1h0a.73.73,0,0,1,.55.25l8.11,9.28a.72.72,0,1,1-1.09,1L17.18,2.83,9.6,11.49A.72.72,0,0,1,9.06,11.73Z"/><path class="a" d="M17.19,24.75a.72.72,0,0,1-.72-.72V1.72a.72.72,0,0,1,1.45,0V24A.72.72,0,0,1,17.19,24.75Z"/><path class="a" d="M30.64,31H3.89A3.9,3.9,0,0,1,0,27.11V20.83a.72.72,0,0,1,1.45,0v5.93a2.77,2.77,0,0,0,2.44,2.79H30.64a2.77,2.77,0,0,0,2.45-2.79V20.55a.72.72,0,1,1,1.45,0v6.56A3.9,3.9,0,0,1,30.64,31Z"/></svg>