<svg xmlns="http://www.w3.org/2000/svg" width="115" height="115" style="background:#fff" viewBox="0 0 115 115">
  <path fill="#4A90E2" fill-rule="evenodd" d="M3,0 L112,0 L112,-4.4408921e-16 C113.656854,6.60946255e-15 115,1.34314575 115,3 L115,112 L115,112 C115,113.656854 113.656854,115 112,115 L3,115 L3,115 C1.34314575,115 7.85251895e-15,113.656854 -4.4408921e-16,112 L0,3 L-4.4408921e-16,3 C-6.46995335e-16,1.34314575 1.34314575,-1.39730022e-16 3,-4.4408921e-16 L3,0 Z M26.9878472,30.625 C23.1461122,30.625 20,33.6279556 20,37.303271 L20,77.3880063 C20,81.0633217 23.1461122,84.0625 26.9878472,84.0625 C30.8335346,84.0625 33.9756944,81.0633217 33.9756944,77.3880063 L33.9756944,37.303271 C33.9756944,33.6279556 30.8335346,30.625 26.9878472,30.625 Z M57.734375,64.375 C61.57611,64.375 64.7222222,61.4352543 64.7222222,57.8455145 L64.7222222,39.9669855 C64.7222222,36.3735526 61.57611,33.4375 57.734375,33.4375 C53.89264,33.4375 50.7465278,36.3735526 50.7465278,39.9669855 L50.7465278,57.8455145 C50.7465278,61.4352543 53.89264,64.375 57.734375,64.375 Z M88.4809028,89.6875 C92.3226378,89.6875 95.46875,86.7165836 95.46875,83.0804809 L95.46875,31.6070191 C95.46875,27.9709164 92.3226378,25 88.4809028,25 C84.6391678,25 81.4930556,27.9709164 81.4930556,31.6070191 L81.4930556,83.0804809 C81.4930556,86.7165836 84.6391678,89.6875 88.4809028,89.6875 Z"/>
</svg>
