<svg xmlns="http://www.w3.org/2000/svg" viewBox="0 0 27 26"><defs><style>.a{fill:#edf4fb;}.b{fill:#468edf;}</style></defs><title>comdash-icons</title><path class="a" d="M14.44,1.45l2.64,7.79,8.1.25A.81.81,0,0,1,25.52,11l-6.17,4.25a.81.81,0,0,0-.31.93l2.73,7.91a.81.81,0,0,1-1.17.85l-6.52-4.24a.81.81,0,0,0-.75,0L7.11,24.75a.81.81,0,0,1-1.15-1l2.43-7.63a.81.81,0,0,0-.33-.93L1.38,10.94a.81.81,0,0,1,.45-1.38l8.52-.31L13,1.45A.81.81,0,0,1,14.44,1.45Z"/><path class="b" d="M21,25.7a1.51,1.51,0,0,1-.7-.17L13.7,21.26s0,0,0,0l-6.17,4a1.52,1.52,0,0,1-1.73-.15,1.5,1.5,0,0,1-.47-1.61l2.43-7.63a.11.11,0,0,0,0-.12L1,11.53l-.11-.09a1.51,1.51,0,0,1,.84-2.57l8.11-.3,2.48-7.34A1.53,1.53,0,0,1,13.71.3a1.5,1.5,0,0,1,1.35.84l0,.08,2.48,7.33,7.62.24A1.52,1.52,0,0,1,26.53,10a1.5,1.5,0,0,1-.61,1.59l-6.17,4.25a.11.11,0,0,0,0,.13l2.73,7.9a.63.63,0,0,1,0,.11A1.51,1.51,0,0,1,21,25.7Zm-7.25-5.82a1.45,1.45,0,0,1,.68.17L21,24.31s0,0,.07,0a.1.1,0,0,0,0-.07l-2.71-7.83A1.52,1.52,0,0,1,19,14.64l6.17-4.25a.1.1,0,0,0,0-.12.1.1,0,0,0-.09-.08l-8-.24a.7.7,0,0,1-.64-.48L13.79,1.74s-.17,0-.18,0L11,9.47a.7.7,0,0,1-.64.48l-8.5.31s0,0,0,.07a.11.11,0,0,0,0,.08l6.59,4.24a1.51,1.51,0,0,1,.62,1.73L6.63,24a.1.1,0,0,0,0,.12.1.1,0,0,0,.12,0l6.17-4A1.65,1.65,0,0,1,13.73,19.88Z"/></svg>