<svg xmlns="http://www.w3.org/2000/svg" viewBox="0 0 33.5 32"><defs><style>.a{fill:#468edf;}</style></defs><title>Icons</title><path class="a" d="M25.9,32a1.94,1.94,0,0,1-1.14-.38L17,26a.47.47,0,0,0-.56,0L8.73,31.61a1.94,1.94,0,0,1-3-2.17l3-9.05a.47.47,0,0,0-.17-.53L.81,14.28a1.94,1.94,0,0,1,1.14-3.51H11.5a.47.47,0,0,0,.45-.33l3-9.1A1.91,1.91,0,0,1,16.75,0h0a1.91,1.91,0,0,1,1.84,1.34l3,9.1a.47.47,0,0,0,.45.33h9.55a1.94,1.94,0,0,1,1.14,3.51L25,19.86a.47.47,0,0,0-.17.53l3,9.07A1.91,1.91,0,0,1,27,31.62,1.94,1.94,0,0,1,25.9,32Z"/><path class="a" d="M25.49,31.27a1.85,1.85,0,0,1-1.09-.36L17,25.54a.45.45,0,0,0-.53,0L9.1,30.9a1.85,1.85,0,0,1-2.85-2.07l2.82-8.64a.45.45,0,0,0-.16-.51L1.53,14.36A1.85,1.85,0,0,1,2.62,11h9.12a.45.45,0,0,0,.43-.31L15,2A1.82,1.82,0,0,1,16.75.73h0A1.82,1.82,0,0,1,18.51,2l2.82,8.69a.45.45,0,0,0,.43.31h9.12A1.85,1.85,0,0,1,32,14.36L24.6,19.68a.45.45,0,0,0-.17.51l2.82,8.65a1.83,1.83,0,0,1-.67,2.07A1.85,1.85,0,0,1,25.49,31.27ZM16.75,24a1.85,1.85,0,0,1,1.09.36l7.38,5.37a.45.45,0,0,0,.69-.5L23.1,20.62a1.84,1.84,0,0,1,.68-2.07l7.37-5.32a.45.45,0,0,0-.26-.82H21.76A1.84,1.84,0,0,1,20,11.13L17.18,2.44h0a.43.43,0,0,0-.43-.31h0a.43.43,0,0,0-.43.31L13.5,11.13a1.85,1.85,0,0,1-1.76,1.28H2.62a.45.45,0,0,0-.26.82l7.37,5.32a1.84,1.84,0,0,1,.67,2.07L7.58,29.26a.45.45,0,0,0,.69.5l7.38-5.36A1.85,1.85,0,0,1,16.75,24Z"/></svg>