<svg xmlns="http://www.w3.org/2000/svg" viewBox="0 0 32 32"><defs><style>.a{fill:#468edf;}</style></defs><title>Icons</title><path class="a" d="M27.13,32H4.87a2.09,2.09,0,0,1-2.09-2.09V2.09A2.09,2.09,0,0,1,4.87,0h15.3a.7.7,0,0,1,.49.2L29,8.55a.7.7,0,0,1,.2.49V29.91A2.09,2.09,0,0,1,27.13,32ZM4.87,1.39a.7.7,0,0,0-.7.7V29.91a.7.7,0,0,0,.7.7H27.13a.7.7,0,0,0,.7-.7V9.33L19.89,1.39Z"/><path class="a" d="M28.52,9.74H20.17a.7.7,0,0,1-.7-.7V1.39h1.39v7h7.65Z"/><path class="a" d="M16,11.83H7.65a.7.7,0,0,1,0-1.39H16a.7.7,0,0,1,0,1.39Z"/><path class="a" d="M24.35,16H7.65a.7.7,0,0,1,0-1.39h16.7a.7.7,0,0,1,0,1.39Z"/><path class="a" d="M24.35,20.17H7.65a.7.7,0,1,1,0-1.39h16.7a.7.7,0,0,1,0,1.39Z"/><path class="a" d="M24.35,24.35H7.65a.7.7,0,0,1,0-1.39h16.7a.7.7,0,0,1,0,1.39Z"/></svg>