<svg xmlns="http://www.w3.org/2000/svg" viewBox="0 0 32 32"><defs><style>.a{fill:#468edf;}</style></defs><title>Icons</title><path class="a" d="M27.12,28.52H8.35a2.1,2.1,0,0,1-2.09-2.1V2.1A2.1,2.1,0,0,1,8.35,0H20.17a.71.71,0,0,1,.5.21L29,8.55a.7.7,0,0,1,.21.5V26.43A2.1,2.1,0,0,1,27.12,28.52ZM8.35,1.41a.69.69,0,0,0-.69.69V26.43a.69.69,0,0,0,.69.69H27.12a.69.69,0,0,0,.69-.69V9.34L19.88,1.41Z"/><path class="a" d="M28.51,9.75H20.17a.7.7,0,0,1-.7-.7V1.4a.7.7,0,1,1,1.41,0V8.34h7.64a.7.7,0,0,1,0,1.41Z"/><path class="a" d="M23.65,32H4.88a2.1,2.1,0,0,1-2.09-2.1V5.57a2.1,2.1,0,0,1,2.09-2.1H7A.7.7,0,0,1,7,4.88H4.88a.69.69,0,0,0-.69.69V29.9a.69.69,0,0,0,.69.69H23.65a.69.69,0,0,0,.69-.69V27.82a.7.7,0,0,1,1.41,0V29.9A2.1,2.1,0,0,1,23.65,32Z"/><path class="a" d="M16.69,12.53H11.83a.7.7,0,1,1,0-1.41h4.87a.7.7,0,1,1,0,1.41Z"/><path class="a" d="M23.65,16H11.83a.7.7,0,1,1,0-1.41H23.65a.7.7,0,1,1,0,1.41Z"/><path class="a" d="M23.65,19.49H11.83a.7.7,0,1,1,0-1.41H23.65a.7.7,0,0,1,0,1.41Z"/><path class="a" d="M23.65,23H11.83a.7.7,0,1,1,0-1.41H23.65a.7.7,0,0,1,0,1.41Z"/></svg>