<svg xmlns="http://www.w3.org/2000/svg" viewBox="0 0 32 32"><defs><style>.a{fill:#468edf;}</style></defs><title>Icons</title><path class="a" d="M13.79,32c-1.77,0-1.67-1.92-1.67-1.92V16.32a.91.91,0,0,0-.24-.61L.7,3.43A2,2,0,0,1,.34,1.22,2,2,0,0,1,2.21,0H29.8a2,2,0,0,1,1.87,1.22,2,2,0,0,1-.36,2.2L20.1,15.7a.91.91,0,0,0-.24.6V25a2.28,2.28,0,0,1-.56,1.49L15,31.43A1.65,1.65,0,0,1,13.79,32ZM2.21,1.42a.63.63,0,0,0-.47,1.05L12.94,14.75a2.33,2.33,0,0,1,.61,1.57v14a.25.25,0,0,0,.42.21l.53-.62,3.73-4.3a.86.86,0,0,0,.21-.56V16.27a2.33,2.33,0,0,1,.61-1.53L30.26,2.46a.62.62,0,0,0-.46-1Z"/></svg>