<svg xmlns="http://www.w3.org/2000/svg" viewBox="0 0 36.95 32"><defs><style>.a{fill:#468edf;}</style></defs><title>Icons</title><path class="a" d="M35.11,8.34H1.84V2.83A2.92,2.92,0,0,1,4.85,0H14.7a3.25,3.25,0,0,1,1.87.59l4,2.84a1.91,1.91,0,0,0,1.1.35H32.19a2.84,2.84,0,0,1,2.92,2.76ZM3.18,7H33.77V6.53a1.5,1.5,0,0,0-1.58-1.41H21.65a3.27,3.27,0,0,1-1.88-.6l-4-2.84a1.9,1.9,0,0,0-1.1-.34H4.85A1.58,1.58,0,0,0,3.18,2.83Z"/><path class="a" d="M33.82,32H3.13A3.14,3.14,0,0,1,0,28.87V10.12A3.14,3.14,0,0,1,3.13,7H33.82A3.14,3.14,0,0,1,37,10.12V28.87A3.14,3.14,0,0,1,33.82,32ZM3.13,8.33a1.79,1.79,0,0,0-1.79,1.79V28.87a1.79,1.79,0,0,0,1.79,1.79H33.82a1.79,1.79,0,0,0,1.79-1.79V10.12a1.79,1.79,0,0,0-1.79-1.79Z"/></svg>