<svg xmlns="http://www.w3.org/2000/svg" viewBox="0 0 35.53 32"><defs><style>.a{fill:#468edf;}</style></defs><title>Icons</title><path class="a" d="M17.63,20.63c-3.51,0-5.6-4.24-6-5.45a1.61,1.61,0,0,1-.58-.6,3.56,3.56,0,0,1-.47-2.89,2.12,2.12,0,0,1,.6-.89A11.35,11.35,0,0,1,11.48,8a6.1,6.1,0,0,1,6.14-4.14A6.1,6.1,0,0,1,23.77,8a11.31,11.31,0,0,1,.33,2.73,2,2,0,0,1,.56.74,3.65,3.65,0,0,1-.44,3.06,1.63,1.63,0,0,1-.58.64C23.17,16.49,21.09,20.63,17.63,20.63Zm-5.39-8.69a.56.56,0,0,0-.22.31,2.3,2.3,0,0,0,.39,1.59,1.41,1.41,0,0,1,.62.67l0,.08c.27.95,2.11,4.47,4.57,4.47s4.3-3.53,4.57-4.47a1.11,1.11,0,0,1,.54-.66c.08,0,.08-.05.09-.07.54-1.05.46-1.54.4-1.71a.35.35,0,0,0-.17-.21.74.74,0,0,1-.52-.78,10.17,10.17,0,0,0-.27-2.72,4.51,4.51,0,0,0-4.63-3,4.51,4.51,0,0,0-4.63,3,10.15,10.15,0,0,0-.27,2.71.78.78,0,0,1-.49.77Z"/><path class="a" d="M28,32H7.89a2.21,2.21,0,0,1-1.61-.73,2.7,2.7,0,0,1-.73-2c.19-3.29,1-7.3,5.68-9.07a9.64,9.64,0,0,0,3-1.74.78.78,0,0,1,1.09,1.12,11,11,0,0,1-3.55,2.08c-3,1.14-4.42,3.45-4.67,7.69a1.14,1.14,0,0,0,.31.81.69.69,0,0,0,.47.24H28a.71.71,0,0,0,.49-.25,1.06,1.06,0,0,0,.3-.76c-.26-4.29-1.7-6.71-4.67-7.83a12.76,12.76,0,0,1-3.59-2,.78.78,0,0,1,1-1.18,11.44,11.44,0,0,0,3.12,1.72c4.7,1.78,5.49,6.1,5.68,9.2a2.63,2.63,0,0,1-.72,1.92A2.23,2.23,0,0,1,28,32Z"/><path class="a" d="M6.94,26.52H2.35A2.53,2.53,0,0,1,0,24c0-2.56-.09-6.07,4.18-7.69a21.13,21.13,0,0,0,2.94-1.42,12,12,0,0,1-2.57-3.62A1.64,1.64,0,0,1,4,10.68a3.57,3.57,0,0,1-.47-2.89,2.12,2.12,0,0,1,.6-.89,11.36,11.36,0,0,1,.33-2.76A6.1,6.1,0,0,1,10.59,0a6.14,6.14,0,0,1,6.15,4.34.78.78,0,1,1-1.52.39,4.56,4.56,0,0,0-4.63-3.16A4.51,4.51,0,0,0,6,4.55a10.18,10.18,0,0,0-.27,2.71A.78.78,0,0,1,5.2,8h0A.58.58,0,0,0,5,8.34a2.3,2.3,0,0,0,.38,1.59l.07.05a1.36,1.36,0,0,1,.55.63l0,.08a9.61,9.61,0,0,0,2.9,3.62.78.78,0,0,1,0,1.32,23.61,23.61,0,0,1-4.19,2.15c-3,1.14-3.22,3.2-3.17,6.2,0,.47.41,1,.78,1H6.94a.78.78,0,0,1,0,1.56Z"/><path class="a" d="M33.18,26.52H28.84a.78.78,0,0,1,0-1.56h4.34c.37,0,.78-.5.78-1,0-3-.15-5.06-3.17-6.2a20.78,20.78,0,0,1-4.22-2.26.78.78,0,0,1,.13-1.35c1.33-.6,2.66-2.94,2.81-3.48l0-.08A1.37,1.37,0,0,1,30.1,10l.07,0a2.31,2.31,0,0,0,.39-1.6A.54.54,0,0,0,30.31,8a.83.83,0,0,1-.46-.75,10.19,10.19,0,0,0-.27-2.72,4.51,4.51,0,0,0-4.63-3,4.36,4.36,0,0,0-4.51,3.15.78.78,0,0,1-1.53-.35,5.92,5.92,0,0,1,6-4.36,6.1,6.1,0,0,1,6.14,4.14,11.39,11.39,0,0,1,.33,2.76,2.12,2.12,0,0,1,.6.89,3.57,3.57,0,0,1-.47,2.89,1.61,1.61,0,0,1-.58.61,10.36,10.36,0,0,1-2.52,3.59,18.17,18.17,0,0,0,2.89,1.44c4.27,1.62,4.22,5.13,4.18,7.69A2.53,2.53,0,0,1,33.18,26.52Z"/></svg>