<svg xmlns="http://www.w3.org/2000/svg" viewBox="0 0 32 32"><defs><style>.a{fill:#468edf;}</style></defs><title>Icons</title><path class="a" d="M16,25.74a2.09,2.09,0,1,1,2.09-2.09A2.09,2.09,0,0,1,16,25.74ZM16,23a.7.7,0,1,0,.7.7A.7.7,0,0,0,16,23Z"/><path class="a" d="M15.88,19.83a.7.7,0,0,1-.7-.7v-.46a5.06,5.06,0,0,1,2.24-4.28,2.89,2.89,0,0,0,1.35-2.49,2.9,2.9,0,0,0-4.93-2A2.88,2.88,0,0,0,13,11.94a.7.7,0,1,1-1.39,0,4.29,4.29,0,0,1,4.35-4.29,4.32,4.32,0,0,1,4.23,4.23,4.27,4.27,0,0,1-2,3.69,3.66,3.66,0,0,0-1.6,3.1v.46A.7.7,0,0,1,15.88,19.83Z"/><path class="a" d="M27.13,32H4.87a2.09,2.09,0,0,1-2.09-2.09V2.09A2.09,2.09,0,0,1,4.87,0H22.26a.69.69,0,0,1,.52.23l6.26,7a.69.69,0,0,1,.18.47V29.91A2.09,2.09,0,0,1,27.13,32ZM4.87,1.39a.7.7,0,0,0-.7.7V29.91a.7.7,0,0,0,.7.7H27.13a.7.7,0,0,0,.7-.7v-22L22,1.39Z"/><path class="a" d="M28.52,8.35H22.26a.7.7,0,0,1-.7-.7V1.39H23V7h5.57Z"/></svg>