<svg xmlns="http://www.w3.org/2000/svg" width="24" height="24" viewBox="0 0 24 24">
  <path fill="#4A90E2" fill-rule="evenodd" d="M11.9502,1.4004 C6.1332,1.4004 1.4002,6.1324 1.4002,11.9504 C1.4002,17.7674 6.1332,22.5004 11.9502,22.5004 C17.7672,22.5004 22.5002,17.7674 22.5002,11.9504 C22.5002,6.1324 17.7672,1.4004 11.9502,1.4004 M7.83377953,11.1371 L10.1022,8.9411 C10.3812,8.6731 10.3872,8.2291 10.1192,7.9521 C9.8482,7.6721 9.4062,7.6661 9.1302,7.9351 L5.6182,11.3341 C5.4842,11.4631 5.4072,11.6401 5.4042,11.8251 C5.4012,12.0121 5.4722,12.1901 5.6012,12.3241 L9.1132,15.9491 C9.2512,16.0911 9.4332,16.1621 9.6162,16.1621 C9.7922,16.1621 9.9682,16.0971 10.1032,15.9651 C10.3812,15.6951 10.3872,15.2531 10.1192,14.9751 L7.7584853,12.5371 L18.3301,12.5371 C18.7171,12.5371 19.0301,12.2241 19.0301,11.8371 C19.0301,11.4501 18.7171,11.1371 18.3301,11.1371 L7.83377953,11.1371 Z M11.9502,23.9004 C5.3612,23.9004 0.0002,18.5394 0.0002,11.9504 C0.0002,5.3614 5.3612,0.000400000001 11.9502,0.000400000001 C18.5392,0.000400000001 23.9002,5.3614 23.9002,11.9504 C23.9002,18.5394 18.5392,23.9004 11.9502,23.9004 Z"/>
</svg>
