<?xml version="1.0" encoding="UTF-8"?>
<svg width="660px" height="72px" viewBox="0 0 165 18" xmlns="http://www.w3.org/2000/svg" xmlns:xlink="http://www.w3.org/1999/xlink">
  <defs>
    <style>.a{fill:#4a90e2}</style>
  </defs>
  <g>
    <path class="a" d="M0,8.39v0C0,4.44,3.38,1.24,8.24,1.24a9.24,9.24,0,0,1,5.28,1.39,1.46,1.46,0,0,1,.68,1.2A1.6,1.6,0,0,1,12.48,5.3a2,2,0,0,1-1-.29A5.7,5.7,0,0,0,8.21,4,4.36,4.36,0,0,0,3.63,8.31v0a4.36,4.36,0,0,0,4.58,4.32,5.54,5.54,0,0,0,3.43-1.08,1.77,1.77,0,0,1,1-.33,1.54,1.54,0,0,1,1.62,1.39,1.36,1.36,0,0,1-.59,1.08A8.67,8.67,0,0,1,8.1,15.45C3.45,15.45,0,12.33,0,8.39" />
    <path class="a" d="M37,8.39v0A4.49,4.49,0,0,0,32.25,4a4.42,4.42,0,0,0-4.74,4.28v0a4.49,4.49,0,0,0,4.78,4.32A4.42,4.42,0,0,0,37,8.39m-13.15,0v0c0-3.91,3.54-7.11,8.42-7.11s8.37,3.16,8.37,7.07v0c0,3.9-3.54,7.1-8.42,7.1s-8.37-3.16-8.37-7.06" />
    <path class="a" d="M89.08,12.49c2.84,0,4.76-1.67,4.76-4.1v0c0-2.43-1.92-4.14-4.76-4.14H86.39v8.28ZM82.92,3a1.62,1.62,0,0,1,1.74-1.51h4.42c5,0,8.39,3,8.39,6.83v0c0,3.87-3.43,6.87-8.39,6.87H84.65a1.62,1.62,0,0,1-1.74-1.51Z" />
    <path class="a" d="M115.54,9.46l-2.19-4.53-2.19,4.53Zm-9.77,3.81,5.51-10.81a2.16,2.16,0,0,1,2-1.2h.2a2.13,2.13,0,0,1,2,1.2L121,13.27a1.32,1.32,0,0,1,.18.61,1.55,1.55,0,0,1-1.65,1.45,1.77,1.77,0,0,1-1.67-1l-1.06-2.16h-6.95l-1.11,2.26a1.72,1.72,0,0,1-1.6.94,1.5,1.5,0,0,1-1.6-1.41,1.45,1.45,0,0,1,.2-.65Z" />
    <path class="a" d="M129.53,13.76a1.36,1.36,0,0,1-.65-1.14,1.51,1.51,0,0,1,1.62-1.39,1.83,1.83,0,0,1,1,.28,7.32,7.32,0,0,0,4,1.24c1.42,0,2.28-.49,2.28-1.29v0c0-.77-.54-1.16-3.18-1.75-3.18-.71-5.24-1.47-5.24-4.2v0c0-2.49,2.3-4.14,5.53-4.14a10.21,10.21,0,0,1,5,1.21,1.36,1.36,0,0,1,.77,1.2,1.51,1.51,0,0,1-1.62,1.39,1.85,1.85,0,0,1-.88-.22,7.28,7.28,0,0,0-3.32-.92c-1.33,0-2,.53-2,1.2v0c0,.9.68,1.2,3.41,1.8,3.2.73,5,1.73,5,4.12v0c0,2.73-2.39,4.26-5.8,4.26a11.27,11.27,0,0,1-5.93-1.65" />
    <path class="a" d="M151.05,2.87a1.75,1.75,0,0,1,3.48,0v4h6.41v-4a1.75,1.75,0,0,1,3.47,0v11a1.75,1.75,0,0,1-3.47,0V9.7h-6.41v4.12a1.75,1.75,0,0,1-3.48,0Z" />
    <path class="a" d="M52.2,1.3h0a1.77,1.77,0,0,0-1.77,1.77V13.68a1.77,1.77,0,0,0,3.54,0V3.07A1.77,1.77,0,0,0,52.2,1.3" />
    <path class="a" d="M60.41,10.74h0A1.77,1.77,0,0,1,58.65,9V4.14a1.77,1.77,0,1,1,3.54,0V9a1.77,1.77,0,0,1-1.77,1.77" />
    <path class="a" d="M68.63,17.31h0a1.77,1.77,0,0,1-1.77-1.77V1.77a1.77,1.77,0,1,1,3.54,0V15.54a1.77,1.77,0,0,1-1.77,1.77" />
  </g>
</svg>
