<svg xmlns="http://www.w3.org/2000/svg" viewBox="0 0 32 32"><defs><style>.a{fill:#468edf;}</style></defs><title>Icons</title><path class="a" d="M28.52,32h-25A3.48,3.48,0,0,1,0,28.52V.7A.7.7,0,0,1,.7,0h23a2.79,2.79,0,0,1,2.78,2.78V28.52a2.09,2.09,0,0,0,4.17,0V1.39a.7.7,0,0,1,1.39,0V28.52A3.48,3.48,0,0,1,28.52,32ZM1.39,1.39V28.52a2.09,2.09,0,0,0,2.09,2.09H25.74a3.46,3.46,0,0,1-.7-2.09V2.78a1.39,1.39,0,0,0-1.39-1.39Z"/><path class="a" d="M28.52,29.22a.7.7,0,0,1-.7-.7V1.39a.7.7,0,1,1,1.39,0V28.52A.7.7,0,0,1,28.52,29.22Z"/><path class="a" d="M12.52,13.22H4.17a.7.7,0,0,1-.7-.7V4.17a.7.7,0,0,1,.7-.7h8.35a.7.7,0,0,1,.7.7v8.35A.7.7,0,0,1,12.52,13.22ZM4.87,11.83h7v-7h-7Z"/><path class="a" d="M21.57,4.87H15.3a.7.7,0,1,1,0-1.39h6.26a.7.7,0,1,1,0,1.39Z"/><path class="a" d="M21.57,7.65H15.3a.7.7,0,1,1,0-1.39h6.26a.7.7,0,1,1,0,1.39Z"/><path class="a" d="M21.57,10.43H15.3A.7.7,0,1,1,15.3,9h6.26a.7.7,0,1,1,0,1.39Z"/><path class="a" d="M21.57,13.22H15.3a.7.7,0,1,1,0-1.39h6.26a.7.7,0,1,1,0,1.39Z"/><path class="a" d="M21.57,17.39H4.17a.7.7,0,0,1,0-1.39H21.57a.7.7,0,1,1,0,1.39Z"/><path class="a" d="M21.57,20.17H4.17a.7.7,0,1,1,0-1.39H21.57a.7.7,0,1,1,0,1.39Z"/><path class="a" d="M12.52,23H4.17a.7.7,0,0,1,0-1.39h8.35a.7.7,0,0,1,0,1.39Z"/><path class="a" d="M12.52,25.74H4.17a.7.7,0,1,1,0-1.39h8.35a.7.7,0,0,1,0,1.39Z"/><path class="a" d="M12.52,28.52H4.17a.7.7,0,0,1,0-1.39h8.35a.7.7,0,0,1,0,1.39Z"/><path class="a" d="M21.57,28.52H15.3a.7.7,0,0,1-.7-.7V22.26a.7.7,0,0,1,.7-.7h6.26a.7.7,0,0,1,.7.7v5.57A.7.7,0,0,1,21.57,28.52ZM16,27.13h4.87V23H16Z"/></svg>