<svg xmlns="http://www.w3.org/2000/svg" viewBox="0 0 32 32"><defs><style>.a{fill:#468edf;}.a,.b{fill-rule:evenodd;}.b{fill:#fff;}</style></defs><title>Icons</title><path class="a" d="M29,23.51,27.35,21.9c-.15-.14-.13-.81-.13-1v-7A11.07,11.07,0,0,0,19.55,3.59l-.19-.05a.25.25,0,0,1-.18-.22V3.23h0a3,3,0,0,0-3-3.2V0h-.41V0a3,3,0,0,0-3,3.2h0v.09a.25.25,0,0,1-.18.22l-.19.05A11.07,11.07,0,0,0,4.78,13.92v7c0,.21,0,.88-.13,1L3,23.51A3.61,3.61,0,0,0,2,25.8a2.09,2.09,0,0,0,2.19,2l6,.06a.18.18,0,0,1,.17.13,6,6,0,0,0,5.43,4h.38a6,6,0,0,0,5.43-4,.18.18,0,0,1,.17-.13l6-.06a2.09,2.09,0,0,0,2.19-2A3.61,3.61,0,0,0,29,23.51Z"/><path class="b" d="M28.11,25c-1.32-1.67-2.46-1.5-2.46-3.29V14.18a9.62,9.62,0,0,0-7.39-9.4c-.64-.14-.57-.9-.57-1.51V2.14c0-.56-1.08-.73-1.69-.73h0c-.61,0-1.65.17-1.65.73V3.27c0,.61,0,1.37-.61,1.51a9.62,9.62,0,0,0-7.39,9.4v7.49c0,1.78-1.15,1.61-2.46,3.29a.87.87,0,0,0,.75,1.39H27.36A.87.87,0,0,0,28.11,25Z"/><path class="b" d="M11.8,27.79a4.5,4.5,0,0,0,8.32,0Z"/></svg>