<?xml version="1.0" encoding="UTF-8"?>
<svg width="104px" height="124px" viewBox="0 0 104 124" version="1.1" xmlns="http://www.w3.org/2000/svg" xmlns:xlink="http://www.w3.org/1999/xlink">
    <!-- Generator: Sketch 46.2 (44496) - http://www.bohemiancoding.com/sketch -->
    <title>icon</title>
    <desc>Created with Sketch.</desc>
    <defs></defs>
    <g id="ooto-Productivity-Dashboards" stroke="none" stroke-width="1" fill="none" fill-rule="evenodd">
        <g id="CMS-Newsflash-Detail" transform="translate(-259.000000, -614.000000)">
            <g id="news-flash-edit" transform="translate(86.000000, 154.000000)">
                <g id="Group-5" transform="translate(24.000000, 359.000000)">
                    <g id="icon" transform="translate(150.000000, 102.000000)">
                        <path d="M96.7012987,37.1304348 L67.5584416,37.1304348 C66.096,37.1304348 64.9090909,35.944913 64.9090909,34.4782609 L64.9090909,6.20945609 C64.9090909,5.7095786 65.3073547,5.30434783 65.8079434,5.30434783 L66.1347769,5.30434783 L9.27272727,5.30434783 C7.81293506,5.30434783 6.62337662,6.49252174 6.62337662,7.95652174 L6.62337662,55.6956522 L1.32467532,55.6956522 L1.32467532,7.95652174 C1.32467532,3.56982609 4.8907013,0 9.27272727,0 L67.5584416,0 C68.2605195,0 68.9361039,0.278478261 69.4315325,0.777086957 L101.22374,32.6031739 C101.721818,33.0991304 102,33.7727826 102,34.4782609 L102,114.043478 C102,118.430174 98.433974,122 94.0519481,122 L9.27272727,122 C4.8907013,122 1.32467532,118.430174 1.32467532,114.043478 L1.32467532,90.7750725 L6.62337662,90.7750725 L6.62337662,114.043478 C6.62337662,115.507478 7.81293506,116.695652 9.27272727,116.695652 L94.0519481,116.695652 C95.5117403,116.695652 96.7012987,115.507478 96.7012987,114.043478 L96.7012987,37.1304348 Z M70.2077922,9.05452174 L70.2077922,31.826087 L92.9551169,31.826087 L70.2077922,9.05452174 Z" id="Combined-Shape" stroke="#FFFFFF" stroke-width="1.8" fill="#439DFF" opacity="0.800000012"></path>
                        <path d="M81.8518519,92.826087 L2.33862434,92.826087 C1.0477037,92.826087 0,91.6405652 0,90.173913 L0,55.6956522 C0,54.229 1.0477037,53.0434783 2.33862434,53.0434783 L81.8518519,53.0434783 C83.1427725,53.0434783 84.1904762,54.229 84.1904762,55.6956522 L84.1904762,90.173913 C84.1904762,91.6405652 83.1427725,92.826087 81.8518519,92.826087 Z" id="base" stroke="#FFFFFF" stroke-width="1.8" fill="#EAF4FF"></path>
                        <text id=".pdf" font-family=".SFNSText, .SF NS Text" font-size="18" font-weight="normal" letter-spacing="0.0727272779" fill="#278CFD">
                            <tspan x="23" y="78">.pdf</tspan>
                        </text>
                    </g>
                </g>
            </g>
        </g>
    </g>
</svg>