<svg xmlns="http://www.w3.org/2000/svg" width="32" height="32" viewBox="0 0 32 32">
  <path fill="#4A90E2" fill-rule="evenodd" d="M0,32 C2.91442121,28.2782053 5.86084199,24.5933332 8.83680081,20.8715386 C8.75557117,20.805078 8.67434152,20.7558479 8.61034241,20.6893873 C6.34821986,18.4297262 4.08609731,16.1676037 1.82397476,13.9054811 C1.35136592,13.4353338 1.27259778,12.8716493 1.60243937,12.3793484 C1.78212919,12.1135059 2.03320264,11.9608926 2.3482752,11.9239701 C2.48611945,11.9067395 2.6264252,11.904278 2.76426945,11.904278 C5.45223226,11.904278 8.14265657,11.904278 10.8306194,11.899355 C10.9610791,11.899355 11.1112309,11.864894 11.2170756,11.7935103 C14.4908764,9.62000196 17.7597543,7.43664755 21.0286321,5.25821615 C21.0729392,5.2286781 21.1147848,5.19421704 21.1763224,5.14990996 C20.9621715,4.72160819 20.7750972,4.2809989 20.5314082,3.87238917 C20.1547981,3.24224404 19.9751082,2.58256086 20.0563379,1.84903255 C20.0834144,1.60288211 20.0563379,1.35427017 20.0612609,1.10811973 C20.0735684,0.660125925 20.2827963,0.320438317 20.68156,0.123517965 C21.0901697,-0.0783253966 21.491395,-0.0290953085 21.8606206,0.24413168 C21.9344657,0.298284777 22.0033879,0.359822387 22.0698485,0.426283006 C25.2328816,3.58931617 28.3983763,6.74988782 31.558948,9.91292098 C31.9749422,10.3289152 32.0758639,10.8261391 31.842021,11.2839789 C31.6401776,11.6753581 31.3177205,11.8919705 30.8771112,11.899355 C30.3134267,11.9092011 29.7497422,11.9067395 29.1860577,11.8968935 C29.0777515,11.894432 28.9595993,11.8525865 28.8586776,11.8033564 C28.1817639,11.4685918 27.5048502,11.1289042 26.8082445,10.781832 C26.7639374,10.8458311 26.7171688,10.9049073 26.6753232,10.9664449 C24.5116609,14.2082462 22.35046,17.4549705 20.1917206,20.7016948 C20.1129525,20.819847 20.0637224,20.9823063 20.0637224,21.127535 C20.0563379,23.8524204 20.0587994,26.5822288 20.0587994,29.3095757 C20.0587994,30.0160275 19.6748047,30.4664828 19.002814,30.5427894 C18.6458959,30.5870965 18.3554383,30.4270987 18.1092879,30.1883328 C17.7868308,29.8781832 17.4742198,29.5581876 17.1566857,29.2406536 C15.1948667,27.2788346 13.2330477,25.3170155 11.2736902,23.3551965 C11.2096911,23.2911974 11.1530765,23.2148908 11.0816928,23.1287381 C7.36235967,26.1071585 3.68241059,29.0535792 0,32"/>
</svg>
