<svg xmlns="http://www.w3.org/2000/svg" viewBox="0 0 31.29 23.8"><defs><style>.a{fill:#edf4fb;}.b{fill:none;stroke-width:1.4px;}.b,.c{stroke:#468edf;stroke-linecap:round;stroke-linejoin:round;}.c{fill:#468edf;}</style></defs><title>search-fill-left-arrow</title><path class="a" d="M24.5,8.65a7.27,7.27,0,0,1-1.38,4.27c-.2.27,8.84,7.06,7.09,8.47-1.58,1.27-8.13-7.3-8.35-7.12A7.31,7.31,0,1,1,24.5,8.65Z"/><circle class="b" cx="17.19" cy="8.68" r="7.31"/><path class="b" d="M23.29,13.3l7.11,7.11a.52.52,0,0,1,0,.74l-.74.74a.52.52,0,0,1-.74,0l-7.11-7.11"/><polygon class="c" points="7.49 6.85 0.7 11.54 7.49 16.02 7.49 6.85"/></svg>