<svg xmlns="http://www.w3.org/2000/svg" viewBox="0 0 32 32"><defs><style>.a{fill:#468edf;}.a,.b{fill-rule:evenodd;}.b{fill:#fff;}</style></defs><title>Icons</title><path class="a" d="M16,0A16,16,0,1,0,32,16,16,16,0,0,0,16,0Z"/><path class="b" d="M13.72,30.58c-6.87-1-12.33-7.44-12.33-15.07a22.68,22.68,0,0,1,.35-3.43l8.46,9.15v1.91A3.69,3.69,0,0,0,13.72,27v3.62Z"/><path class="b" d="M26.93,25.4a3.59,3.59,0,0,0-3.34-2.47H21.83v-5.3a1.66,1.66,0,0,0-1.76-1.77H9.53V12.33H13a1.66,1.66,0,0,0,1.76-1.77V7h3.51a3.53,3.53,0,0,0,3.51-3.53V2.8a14.3,14.3,0,0,1,8.79,13.06,14,14,0,0,1-3.69,9.53Z"/></svg>