<svg xmlns="http://www.w3.org/2000/svg" viewBox="0 0 25 26"><defs><style>.a{fill:#edf4fb;}.b{fill:#468edf;}</style></defs><title>comdash-icons</title><path class="a" d="M12.5,15.6c2.91,0,4.85-3.88,5.13-4.86,0-.07.46-.29.49-.36C19.7,7.6,18,7.28,18,7.28a10.49,10.49,0,0,0-.29-2.85A5.09,5.09,0,0,0,12.5,1,5.09,5.09,0,0,0,7.31,4.43,10.49,10.49,0,0,0,7,7.28s-1.72.32-.15,3.11c0,.06.47.29.49.36C7.65,11.73,9.59,15.6,12.5,15.6Z"/><path class="a" d="M15.17,14.77a8.52,8.52,0,0,0,3.22,1.77c3,.95,5.56,2.72,5.78,7.42A61.28,61.28,0,0,1,12.5,25,61.28,61.28,0,0,1,.82,24c.22-4.7,2.79-6.47,5.78-7.42a8.52,8.52,0,0,0,3.22-1.77"/><path class="b" d="M12.5,16.3c-3.28,0-5.27-3.89-5.73-5.14l0,0a1.17,1.17,0,0,1-.46-.4c-.75-1.33-.94-2.4-.58-3.19a1.7,1.7,0,0,1,.62-.72,10.83,10.83,0,0,1,.32-2.59A5.82,5.82,0,0,1,12.5.3a5.82,5.82,0,0,1,5.87,3.95,10.82,10.82,0,0,1,.32,2.59,1.7,1.7,0,0,1,.62.72c.37.79.17,1.86-.57,3.18a1.16,1.16,0,0,1-.46.41l0,0C17.77,12.4,15.79,16.3,12.5,16.3ZM7.42,9.92l.05,0c.26.16.49.3.57.6.26.92,2.05,4.35,4.46,4.35s4.19-3.43,4.46-4.35a1.09,1.09,0,0,1,.57-.6l.05,0c.64-1.18.51-1.65.46-1.78A.36.36,0,0,0,17.85,8a.7.7,0,0,1-.57-.73A9.82,9.82,0,0,0,17,4.61,4.4,4.4,0,0,0,12.5,1.7,4.42,4.42,0,0,0,8,4.61a9.81,9.81,0,0,0-.26,2.63A.7.7,0,0,1,7.15,8,.35.35,0,0,0,7,8.16C6.9,8.28,6.79,8.76,7.42,9.92Z"/><path class="b" d="M12.5,25.7A61.38,61.38,0,0,1,.67,24.64a.7.7,0,0,1-.55-.72c.26-5.53,3.71-7.24,6.27-8.05a8,8,0,0,0,2.94-1.6.7.7,0,0,1,1,1,9.18,9.18,0,0,1-3.5,1.94C4.43,18,2,19.29,1.56,23.39a64.1,64.1,0,0,0,10.94.91,64.1,64.1,0,0,0,10.94-.91C23,19.29,20.57,18,18.19,17.2a9.2,9.2,0,0,1-3.51-1.94.7.7,0,0,1,1-1,8,8,0,0,0,2.94,1.6c2.57.81,6,2.53,6.27,8.05a.7.7,0,0,1-.55.72A61.39,61.39,0,0,1,12.5,25.7Z"/></svg>