<svg xmlns="http://www.w3.org/2000/svg" viewBox="0 0 32 32"><defs><style>.a{fill:#edf4fb;}.b{fill:#468edf;}</style></defs><title>Icons</title><path class="a" d="M30.6,29.9c-.11-4.86-2.86-8-5.78-8.84A22.9,22.9,0,0,1,19,18.23a13.54,13.54,0,0,0,3.49-5.13c2.73-3,.27-4.8.27-4.8C22.75.59,16.69.81,15.92.87S9.08.59,9,8.3c0,0-2.46,1.8.27,4.8a13.54,13.54,0,0,0,3.49,5.13A22.9,22.9,0,0,1,7,21.06c-2.92.84-5.67,4-5.78,8.84,0,0,9.26,1.78,14.69,1.42C21.34,31.68,30.6,29.9,30.6,29.9Z"/><path class="b" d="M16,20c-3.83,0-6.51-4.59-7.16-6.48l-.1-.06A1.35,1.35,0,0,1,8.21,13C7.28,11.4,7,10.09,7.49,9.13a2,2,0,0,1,.81-.89,13.69,13.69,0,0,1,.4-3.34A7.27,7.27,0,0,1,16,0a7.27,7.27,0,0,1,7.31,4.9,13.68,13.68,0,0,1,.4,3.34,2,2,0,0,1,.81.89c.44,1,.2,2.26-.72,3.9a1.35,1.35,0,0,1-.53.46l-.1.06C22.51,15.44,19.83,20,16,20ZM9.4,12.2l.1.06c.32.2.57.35.66.67.34,1.2,2.68,5.66,5.84,5.66s5.49-4.46,5.84-5.66c.09-.32.34-.47.66-.67l.1-.06c.84-1.53.71-2.21.61-2.43a.59.59,0,0,0-.38-.34.75.75,0,0,1-.58-.75,12.71,12.71,0,0,0-.34-3.41c0-.15-1.12-3.82-5.91-3.82s-5.9,3.79-5.91,3.83a12.64,12.64,0,0,0-.34,3.4.73.73,0,0,1-.59.75.6.6,0,0,0-.37.33C8.7,10,8.57,10.67,9.4,12.2Z"/><path class="b" d="M16,32A79.59,79.59,0,0,1,1,30.66a.73.73,0,0,1-.57-.74C.73,23,5.05,20.83,8.27,19.81a10.16,10.16,0,0,0,3.81-2.07.73.73,0,1,1,1,1,11.53,11.53,0,0,1-4.4,2.43c-3.12,1-6.33,2.73-6.81,8.16A81.36,81.36,0,0,0,16,30.55a81.25,81.25,0,0,0,14.1-1.19c-.48-5.43-3.7-7.18-6.81-8.16a11.52,11.52,0,0,1-4.4-2.43.73.73,0,0,1,1-1,10.31,10.31,0,0,0,3.81,2.07c3.22,1,7.54,3.17,7.87,10.1a.73.73,0,0,1-.57.74A79.59,79.59,0,0,1,16,32Z"/></svg>