<svg xmlns="http://www.w3.org/2000/svg" viewBox="0 0 29 26"><defs><style>.a{fill:#edf4fb;}.b{fill:#468edf;}</style></defs><title>comdash-icons</title><path class="a" d="M14.39,16c2.38,0,4-3.17,4.2-4,0-.17.29-.16.45-.46,1-2-.17-2.37-.17-2.37a8.59,8.59,0,0,0-.23-2.33,4.17,4.17,0,0,0-4.25-2.81,4.17,4.17,0,0,0-4.25,2.81,8.59,8.59,0,0,0-.23,2.33s-1.2.49-.18,2.36c.15.28.37.24.47.47C10.42,12.86,12,16,14.39,16Z"/><path class="a" d="M17.1,15.37a9.49,9.49,0,0,0,2.65,1.47c2.93,1.11,3.89,3.64,4.08,6.72A1.37,1.37,0,0,1,22.6,25H6.71a1.38,1.38,0,0,1-1.23-1.48c.19-3.16,1.14-5.5,4.08-6.61a8.07,8.07,0,0,0,2.59-1.51"/><path class="a" d="M16,4a4.05,4.05,0,0,1,4.15-3,4.17,4.17,0,0,1,4.25,2.81,8.6,8.6,0,0,1,.23,2.34s1.2.49.18,2.37c-.15.28-.37.25-.47.48a6.54,6.54,0,0,1-2.56,3.13A15.92,15.92,0,0,0,25,13.83c2.84,1.07,2.93,3.18,2.9,5.48a1.38,1.38,0,0,1-1.23,1.37H23.23A8.72,8.72,0,0,0,20,17l-4-2Z"/><path class="a" d="M13,4.28a4.05,4.05,0,0,0-4.15-3A4.17,4.17,0,0,0,4.59,4.12a8.6,8.6,0,0,0-.23,2.34S3.16,7,4.17,8.83c.15.28.37.25.47.48A6.54,6.54,0,0,0,7.2,12.44,15.92,15.92,0,0,1,4,14.15c-2.84,1.07-2.93,3.18-2.9,5.48A1.38,1.38,0,0,0,2.35,21H5.77A8.72,8.72,0,0,1,9,17.32l4-2Z"/><path class="b" d="M14.39,16.73c-2.79,0-4.46-3.32-4.82-4.32a1.33,1.33,0,0,1-.46-.49,2.89,2.89,0,0,1-.38-2.35,1.8,1.8,0,0,1,.47-.71,9,9,0,0,1,.26-2.15,4.89,4.89,0,0,1,4.93-3.33,4.89,4.89,0,0,1,4.92,3.32,9,9,0,0,1,.26,2.13,1.61,1.61,0,0,1,.43.59,3,3,0,0,1-.35,2.48,1.35,1.35,0,0,1-.46.52C18.8,13.5,17.14,16.73,14.39,16.73ZM10.17,9.87a.4.4,0,0,0-.13.2c0,.15-.07.51.3,1.19a1,1,0,0,1,.5.54c.24.81,1.65,3.54,3.55,3.54s3.32-2.73,3.53-3.47a1,1,0,0,1,.46-.57c.46-.84.39-1.21.36-1.3a.2.2,0,0,0-.09-.12.66.66,0,0,1-.46-.7A7.93,7.93,0,0,0,18,7.07a3.48,3.48,0,0,0-3.57-2.28,3.48,3.48,0,0,0-3.58,2.29,7.81,7.81,0,0,0-.21,2.11.7.7,0,0,1-.44.69Zm9.1,2.36v0Z"/><path class="b" d="M22.6,25.7H6.71a1.83,1.83,0,0,1-1.33-.6,2.22,2.22,0,0,1-.6-1.62c.15-2.62.81-5.81,4.53-7.22a7.54,7.54,0,0,0,2.35-1.36.7.7,0,0,1,1,1,8.75,8.75,0,0,1-2.83,1.66c-2.35.89-3.43,2.68-3.63,6a.81.81,0,0,0,.22.58.46.46,0,0,0,.31.16H22.6a.48.48,0,0,0,.32-.17.76.76,0,0,0,.21-.53c-.2-3.35-1.32-5.23-3.63-6.1a10.17,10.17,0,0,1-2.86-1.59.7.7,0,0,1,.92-1.06A9,9,0,0,0,20,16.18c3.75,1.42,4.38,4.86,4.53,7.33a2.16,2.16,0,0,1-.59,1.58A1.84,1.84,0,0,1,22.6,25.7Z"/><path class="b" d="M6,21.38H2.35A2.08,2.08,0,0,1,.41,19.32c0-2-.07-4.85,3.35-6.14A16.36,16.36,0,0,0,6,12.12,9.71,9.71,0,0,1,4,9.34a1.38,1.38,0,0,1-.46-.5A2.89,2.89,0,0,1,3.18,6.5a1.79,1.79,0,0,1,.47-.71,9,9,0,0,1,.26-2.16A4.89,4.89,0,0,1,8.84.3a4.92,4.92,0,0,1,4.93,3.49.7.7,0,1,1-1.36.35A3.52,3.52,0,0,0,8.84,1.7,3.48,3.48,0,0,0,5.26,4,7.85,7.85,0,0,0,5.06,6.1a.7.7,0,0,1-.43.69h0a.4.4,0,0,0-.13.2,1.65,1.65,0,0,0,.3,1.19,1.12,1.12,0,0,1,.5.54,7.59,7.59,0,0,0,2.27,2.88.7.7,0,0,1,0,1.18,18.72,18.72,0,0,1-3.32,1.7C1.93,15.37,1.78,17,1.81,19.3c0,.33.28.68.53.68H6a.7.7,0,1,1,0,1.4Z"/><path class="b" d="M26.65,21.38H23.23a.7.7,0,1,1,0-1.4h3.42c.25,0,.53-.36.53-.68,0-2.33-.12-3.93-2.45-4.81a16.53,16.53,0,0,1-3.34-1.79.7.7,0,0,1,.12-1.21A6,6,0,0,0,23.69,8.8a1.2,1.2,0,0,1,.49-.61A1.67,1.67,0,0,0,24.5,7a.43.43,0,0,0-.12-.18.7.7,0,0,1-.43-.69A7.9,7.9,0,0,0,23.73,4,3.48,3.48,0,0,0,20.16,1.7a3.31,3.31,0,0,0-3.47,2.41.7.7,0,0,1-1.37-.3A4.75,4.75,0,0,1,20.16.3a4.89,4.89,0,0,1,4.92,3.32,9,9,0,0,1,.26,2.16,1.79,1.79,0,0,1,.47.71,2.89,2.89,0,0,1-.38,2.35,1.34,1.34,0,0,1-.46.49,8.24,8.24,0,0,1-1.92,2.77,14.09,14.09,0,0,0,2.17,1.07c3.42,1.3,3.38,4.1,3.35,6.14A2.08,2.08,0,0,1,26.65,21.38Z"/></svg>