<svg xmlns="http://www.w3.org/2000/svg" viewBox="0 0 32 32"><defs><style>.a{fill:#edf4fb;}.b{fill:#468edf;}</style></defs><title>Icons</title><rect class="a" x="0.7" y="0.54" width="30.61" height="30.61" rx="1.88" ry="1.88"/><path class="b" d="M29.91,32H2.09A2.09,2.09,0,0,1,0,29.91V2.09A2.09,2.09,0,0,1,2.09,0H29.91A2.09,2.09,0,0,1,32,2.09V29.91A2.09,2.09,0,0,1,29.91,32ZM2.09,1.39a.7.7,0,0,0-.7.7V29.91a.7.7,0,0,0,.7.7H29.91a.7.7,0,0,0,.7-.7V2.09a.7.7,0,0,0-.7-.7Z"/><path class="b" d="M3.48,4.52a1,1,0,1,1,1-1A1,1,0,0,1,3.48,4.52Zm0-1.39a.35.35,0,1,0,.35.35A.35.35,0,0,0,3.48,3.13Z"/><path class="b" d="M6.26,4.52a1,1,0,1,1,1-1A1,1,0,0,1,6.26,4.52Zm0-1.39a.35.35,0,1,0,.35.35A.35.35,0,0,0,6.26,3.13Z"/><path class="b" d="M9,4.52a1,1,0,1,1,1-1A1,1,0,0,1,9,4.52ZM9,3.13a.35.35,0,1,0,.35.35A.35.35,0,0,0,9,3.13Z"/><rect class="b" x="0.7" y="5.57" width="30.61" height="1.39"/><path class="b" d="M24.36,23.15h-.12a.7.7,0,0,1-.51-.38l-4.06-8.25-4.45,7.54a.7.7,0,0,1-1.11.12l-4.4-4.7L5.33,21.39a.7.7,0,1,1-.93-1L9.3,16a.69.69,0,0,1,1,0l4.23,4.52,4.63-7.85a.7.7,0,0,1,1.22,0l4.21,8.55L27,18.88a.7.7,0,1,1,1,1L24.85,23A.7.7,0,0,1,24.36,23.15Z"/><circle class="b" cx="19.48" cy="13.22" r="1.39"/><circle class="b" cx="14.61" cy="21.57" r="1.39"/><circle class="b" cx="24.35" cy="22.26" r="1.39"/><path class="b" d="M9.74,18.43a1.74,1.74,0,1,1,1.74-1.74A1.74,1.74,0,0,1,9.74,18.43Zm0-2.09a.35.35,0,1,0,.35.35A.35.35,0,0,0,9.74,16.35Z"/></svg>