<svg width="231px" height="170px" viewBox="0 0 231 170" xmlns="http://www.w3.org/2000/svg">
  <defs>
    <style>.a{fill:#468edf}.b{fill:#84b5ec}</style>
  </defs>
  <rect class="a" x="55.44" y="113.24" width="77.61" height="4.03" />
  <rect class="a" x="55.44" y="131.4" width="62.83" height="4.03" />
  <rect class="a" x="55.44" y="122.32" width="71.15" height="4.03" />
  <rect class="a" x="55.44" y="149.56" width="66.53" height="4.03" />
  <rect class="a" x="55.44" y="140.48" width="74.85" height="4.03" />
  <rect class="a" x="143.08" y="14.39" width="74.06" height="4.03" />
  <rect class="a" x="143.08" y="32.55" width="59.95" height="4.03" />
  <rect class="a" x="143.08" y="23.47" width="67.89" height="4.03" />
  <rect class="a" x="143.08" y="50.7" width="63.48" height="4.03" />
  <rect class="a" x="143.08" y="41.62" width="71.41" height="4.03" />
  <rect class="b" x="12.34" y="135.44" width="36.31" height="19.17" rx="3.03" ry="3.03" />
  <rect class="b" x="12.34" y="87.02" width="36.31" height="19.17" rx="3.03" ry="3.03" />
  <rect class="b" x="51.88" y="14.39" width="84.73" height="91.79" rx="3.03" ry="3.03" />
  <rect class="b" x="12.34" y="38.6" width="36.31" height="19.17" rx="3.03" ry="3.03" />
  <rect class="b" x="12.34" y="111.23" width="36.31" height="19.17" rx="3.03" ry="3.03" />
  <rect class="b" x="12.34" y="62.81" width="36.31" height="19.17" rx="3.03" ry="3.03" />
  <rect class="b" x="143.08" y="62.81" width="77.61" height="43.38" rx="3.03" ry="3.03" />
  <rect class="b" x="143.08" y="113.24" width="77.61" height="40.35" rx="3.03" ry="3.03" />
  <rect class="b" x="12.34" y="14.39" width="36.31" height="19.17" rx="3.03" ry="3.03" />
</svg>
